<?xml version="1.0" encoding="UTF-8" standalone="no"?><svg xmlns="http://www.w3.org/2000/svg" xmlns:xlink="http://www.w3.org/1999/xlink" contentStyleType="text/css" height="755px" preserveAspectRatio="none" style="width:1270px;height:755px;background:#FFFFFF;" version="1.1" viewBox="0 0 1270 755" width="1270px" zoomAndPan="magnify"><defs/><g><!--MD5=[69a73a17033452497e3e9de00f01ddc4]
cluster onJourney--><g id="cluster_onJourney"><path d="M19.5,7 L1132.5,7 A12.5,12.5 0 0 1 1145,19.5 L1145,36.0679 L7,36.0679 L7,19.5 A12.5,12.5 0 0 1 19.5,7 " fill="#F1F1F1" style="stroke:#F1F1F1;stroke-width:1.0;"/><rect fill="none" height="742.5" rx="12.5" ry="12.5" style="stroke:#181818;stroke-width:0.5;" width="1138" x="7" y="7"/><line style="stroke:#181818;stroke-width:0.5;" x1="7" x2="1145" y1="36.0679" y2="36.0679"/><text fill="#000000" font-family="sans-serif" font-size="14" lengthAdjust="spacing" textLength="68" x="542" y="25.9659">onJourney</text></g><!--MD5=[af2a0423400a3fa74c2b97cdcbd24b65]
cluster Marco--><g id="cluster_Marco"><path d="M233.5,61 L983.5,61 A12.5,12.5 0 0 1 996,73.5 L996,90.0679 L221,90.0679 L221,73.5 A12.5,12.5 0 0 1 233.5,61 " fill="#F1F1F1" style="stroke:#F1F1F1;stroke-width:1.0;"/><rect fill="none" height="567.5" rx="12.5" ry="12.5" style="stroke:#181818;stroke-width:0.5;" width="775" x="221" y="61"/><line style="stroke:#181818;stroke-width:0.5;" x1="221" x2="996" y1="90.0679" y2="90.0679"/><text fill="#000000" font-family="sans-serif" font-size="14" lengthAdjust="spacing" textLength="42" x="587.5" y="79.9659">Marco</text></g><!--MD5=[5b3ce41e4a5e18bec7fa2ecf4eb794b8]
cluster Weather--><g id="cluster_Weather"><path d="M596.5,107 L959.5,107 A12.5,12.5 0 0 1 972,119.5 L972,136.0679 L584,136.0679 L584,119.5 A12.5,12.5 0 0 1 596.5,107 " fill="#F1F1F1" style="stroke:#F1F1F1;stroke-width:1.0;"/><rect fill="none" height="207.5" rx="12.5" ry="12.5" style="stroke:#181818;stroke-width:0.5;" width="388" x="584" y="107"/><line style="stroke:#181818;stroke-width:0.5;" x1="584" x2="972" y1="136.0679" y2="136.0679"/><text fill="#000000" font-family="sans-serif" font-size="14" lengthAdjust="spacing" textLength="57" x="749.5" y="125.9659">Weather</text></g><!--MD5=[bbe0a58e9aa4bef7dda6f3ab96b5c033]
cluster Amedio--><g id="cluster_Amedio"><path d="M257.5,107 L547.5,107 A12.5,12.5 0 0 1 560,119.5 L560,136.0679 L245,136.0679 L245,119.5 A12.5,12.5 0 0 1 257.5,107 " fill="#F1F1F1" style="stroke:#F1F1F1;stroke-width:1.0;"/><rect fill="none" height="207.5" rx="12.5" ry="12.5" style="stroke:#181818;stroke-width:0.5;" width="315" x="245" y="107"/><line style="stroke:#181818;stroke-width:0.5;" x1="245" x2="560" y1="136.0679" y2="136.0679"/><text fill="#000000" font-family="sans-serif" font-size="14" lengthAdjust="spacing" textLength="51" x="377" y="125.9659">Amedio</text></g><!--MD5=[3d10dcbdbc2f691c0eddd401ee824953]
cluster Mother--><g id="cluster_Mother"><path d="M51.5,428.5 L184.5,428.5 A12.5,12.5 0 0 1 197,441 L197,457.5679 L39,457.5679 L39,441 A12.5,12.5 0 0 1 51.5,428.5 " fill="#F1F1F1" style="stroke:#F1F1F1;stroke-width:1.0;"/><rect fill="none" height="200" rx="12.5" ry="12.5" style="stroke:#181818;stroke-width:0.5;" width="158" x="39" y="428.5"/><line style="stroke:#181818;stroke-width:0.5;" x1="39" x2="197" y1="457.5679" y2="457.5679"/><text fill="#000000" font-family="sans-serif" font-size="14" lengthAdjust="spacing" textLength="49" x="93.5" y="447.4659">Mother</text></g><g id="onJourney.Distance"><rect fill="#F1F1F1" height="50" rx="12.5" ry="12.5" style="stroke:#181818;stroke-width:0.5;" width="78" x="179" y="675.5"/><line style="stroke:#181818;stroke-width:0.5;" x1="179" x2="257" y1="704.5679" y2="704.5679"/><text fill="#000000" font-family="sans-serif" font-size="14" lengthAdjust="spacing" textLength="58" x="189" y="695.4659">Distance</text></g><ellipse cx="384" cy="371.5" fill="#222222" rx="10" ry="10" style="stroke:none;stroke-width:1.0;"/><g id="onJourney.Marco.MarcoSpeed"><rect fill="#F1F1F1" height="50" rx="12.5" ry="12.5" style="stroke:#181818;stroke-width:0.5;" width="104" x="412" y="451.5"/><line style="stroke:#181818;stroke-width:0.5;" x1="412" x2="516" y1="480.5679" y2="480.5679"/><text fill="#000000" font-family="sans-serif" font-size="14" lengthAdjust="spacing" textLength="84" x="422" y="471.4659">MarcoSpeed</text></g><g id="onJourney.Marco.MarcoTime"><rect fill="#F1F1F1" height="50" rx="12.5" ry="12.5" style="stroke:#181818;stroke-width:0.5;" width="95" x="260.5" y="451.5"/><line style="stroke:#181818;stroke-width:0.5;" x1="260.5" x2="355.5" y1="480.5679" y2="480.5679"/><text fill="#000000" font-family="sans-serif" font-size="14" lengthAdjust="spacing" textLength="75" x="270.5" y="471.4659">MarcoTime</text></g><g id="onJourney.Marco.MarcoAdvance"><rect fill="#F1F1F1" height="50" rx="12.5" ry="12.5" style="stroke:#181818;stroke-width:0.5;" width="119" x="248.5" y="562.5"/><line style="stroke:#181818;stroke-width:0.5;" x1="248.5" x2="367.5" y1="591.5679" y2="591.5679"/><text fill="#000000" font-family="sans-serif" font-size="14" lengthAdjust="spacing" textLength="99" x="258.5" y="582.4659">MarcoAdvance</text></g><ellipse cx="789" cy="155" fill="#222222" rx="10" ry="10" style="stroke:none;stroke-width:1.0;"/><g id="onJourney.Marco.Weather.GoodWeather"><rect fill="#F1F1F1" height="50" rx="12.5" ry="12.5" style="stroke:#181818;stroke-width:0.5;" width="112" x="600" y="248.5"/><line style="stroke:#181818;stroke-width:0.5;" x1="600" x2="712" y1="277.5679" y2="277.5679"/><text fill="#000000" font-family="sans-serif" font-size="14" lengthAdjust="spacing" textLength="92" x="610" y="268.4659">GoodWeather</text></g><g id="onJourney.Marco.Weather.LightRain"><rect fill="#F1F1F1" height="50" rx="12.5" ry="12.5" style="stroke:#181818;stroke-width:0.5;" width="84" x="747" y="248.5"/><line style="stroke:#181818;stroke-width:0.5;" x1="747" x2="831" y1="277.5679" y2="277.5679"/><text fill="#000000" font-family="sans-serif" font-size="14" lengthAdjust="spacing" textLength="64" x="757" y="268.4659">LightRain</text></g><g id="onJourney.Marco.Weather.HeavyRain"><rect fill="#F1F1F1" height="50" rx="12.5" ry="12.5" style="stroke:#181818;stroke-width:0.5;" width="90" x="866" y="248.5"/><line style="stroke:#181818;stroke-width:0.5;" x1="866" x2="956" y1="277.5679" y2="277.5679"/><text fill="#000000" font-family="sans-serif" font-size="14" lengthAdjust="spacing" textLength="70" x="876" y="268.4659">HeavyRain</text></g><ellipse cx="427" cy="155" fill="#222222" rx="10" ry="10" style="stroke:none;stroke-width:1.0;"/><g id="onJourney.Marco.Amedio.Calm"><rect fill="#F1F1F1" height="50" rx="12.5" ry="12.5" style="stroke:#181818;stroke-width:0.5;" width="54" x="490" y="248.5"/><line style="stroke:#181818;stroke-width:0.5;" x1="490" x2="544" y1="277.5679" y2="277.5679"/><text fill="#000000" font-family="sans-serif" font-size="14" lengthAdjust="spacing" textLength="34" x="500" y="268.4659">Calm</text></g><g id="onJourney.Marco.Amedio.Escapes"><rect fill="#F1F1F1" height="50" rx="12.5" ry="12.5" style="stroke:#181818;stroke-width:0.5;" width="74" x="261" y="248.5"/><line style="stroke:#181818;stroke-width:0.5;" x1="261" x2="335" y1="277.5679" y2="277.5679"/><text fill="#000000" font-family="sans-serif" font-size="14" lengthAdjust="spacing" textLength="54" x="271" y="268.4659">Escapes</text></g><g id="onJourney.Marco.Amedio.Tired"><rect fill="#F1F1F1" height="50" rx="12.5" ry="12.5" style="stroke:#181818;stroke-width:0.5;" width="55" x="399.5" y="248.5"/><line style="stroke:#181818;stroke-width:0.5;" x1="399.5" x2="454.5" y1="277.5679" y2="277.5679"/><text fill="#000000" font-family="sans-serif" font-size="14" lengthAdjust="spacing" textLength="35" x="409.5" y="268.4659">Tired</text></g><ellipse cx="118" cy="476.5" fill="#222222" rx="10" ry="10" style="stroke:none;stroke-width:1.0;"/><g id="onJourney.Mother.MotherAdvance"><rect fill="#F1F1F1" height="50" rx="12.5" ry="12.5" style="stroke:#181818;stroke-width:0.5;" width="126" x="55" y="562.5"/><line style="stroke:#181818;stroke-width:0.5;" x1="55" x2="181" y1="591.5679" y2="591.5679"/><text fill="#000000" font-family="sans-serif" font-size="14" lengthAdjust="spacing" textLength="106" x="65" y="582.4659">MotherAdvance</text></g><g id="Happyness"><rect fill="#F1F1F1" height="50" rx="12.5" ry="12.5" style="stroke:#181818;stroke-width:0.5;" width="94" x="1169" y="248.5"/><line style="stroke:#181818;stroke-width:0.5;" x1="1169" x2="1263" y1="277.5679" y2="277.5679"/><text fill="#000000" font-family="sans-serif" font-size="14" lengthAdjust="spacing" textLength="74" x="1179" y="268.4659">Happyness</text></g><ellipse cx="1216" cy="371.5" fill="none" rx="10" ry="10" style="stroke:#222222;stroke-width:1.0;"/><ellipse cx="1216.5" cy="372" fill="#222222" rx="6" ry="6" style="stroke:none;stroke-width:1.0;"/><!--MD5=[6161b0249fbc472b3bfa299e3a008b17]
link *start*Marco to MarcoSpeed--><g id="link_*start*Marco_MarcoSpeed"><path d="M389.75,379.91 C400.55,393.8 424.34,424.44 442.1,447.31 " fill="none" id="*start*Marco-to-MarcoSpeed" style="stroke:#181818;stroke-width:1.0;"/><polygon fill="#181818" points="445.34,451.48,442.9648,441.9219,442.2673,447.5355,436.6536,446.8381,445.34,451.48" style="stroke:#181818;stroke-width:1.0;"/></g><!--MD5=[691e7cd9ec3f97dc967d1deac575b6e4]
link *start*Marco to MarcoTime--><g id="link_*start*Marco_MarcoTime"><path d="M378.53,379.91 C368.28,393.8 345.68,424.44 328.8,447.31 " fill="none" id="*start*Marco-to-MarcoTime" style="stroke:#181818;stroke-width:1.0;"/><polygon fill="#181818" points="325.72,451.48,334.2814,446.6114,328.6879,447.4562,327.8432,441.8627,325.72,451.48" style="stroke:#181818;stroke-width:1.0;"/></g><!--MD5=[6a419ce1d50f2a76aaa0462bcdab96f6]
link *start*Weather to GoodWeather--><g id="link_*start*Weather_GoodWeather"><path d="M781.85,162.26 C764.4,177.55 718.76,217.52 687.52,244.89 " fill="none" id="*start*Weather-to-GoodWeather" style="stroke:#181818;stroke-width:1.0;"/><polygon fill="#181818" points="683.41,248.49,692.8172,245.5738,687.1729,245.1975,687.5492,239.5532,683.41,248.49" style="stroke:#181818;stroke-width:1.0;"/></g><!--MD5=[da61acbfbcd31e11fe41e90d825fbfbd]
link *start*Weather to LightRain--><g id="link_*start*Weather_LightRain"><path d="M789,165.14 C789,181.67 789,217.18 789,242.84 " fill="none" id="*start*Weather-to-LightRain" style="stroke:#181818;stroke-width:1.0;"/><polygon fill="#181818" points="789,248.16,793,239.16,789,243.16,785,239.16,789,248.16" style="stroke:#181818;stroke-width:1.0;"/><text fill="#000000" font-family="sans-serif" font-size="13" lengthAdjust="spacing" textLength="28" x="790" y="214.397">30 %</text></g><!--MD5=[cdd66acd2023076cd7879d8955d0bb4d]
link *start*Weather to HeavyRain--><g id="link_*start*Weather_HeavyRain"><path d="M795.83,162.6 C798.11,164.8 800.66,167.26 803,169.5 C829.69,195.1 860.2,224.17 881.96,244.89 " fill="none" id="*start*Weather-to-HeavyRain" style="stroke:#181818;stroke-width:1.0;"/><polygon fill="#181818" points="885.65,248.4,881.8744,239.3036,882.0229,244.9585,876.368,245.107,885.65,248.4" style="stroke:#181818;stroke-width:1.0;"/><text fill="#000000" font-family="sans-serif" font-size="13" lengthAdjust="spacing" textLength="28" x="855" y="214.397">10 %</text></g><!--MD5=[aa60d085fa3b7866fad7402e6cb7272d]
link *start*Amedio to Calm--><g id="link_*start*Amedio_Calm"><path d="M433.41,162.9 C441.14,171.33 454.43,186.12 465,199.5 C476.36,213.89 488.28,230.49 497.83,244.23 " fill="none" id="*start*Amedio-to-Calm" style="stroke:#181818;stroke-width:1.0;"/><polygon fill="#181818" points="500.72,248.39,498.8946,238.7118,497.8777,244.2765,492.313,243.2595,500.72,248.39" style="stroke:#181818;stroke-width:1.0;"/></g><!--MD5=[404e830fe5fb0d45dc76b28ea610d6f4]
link *start*Amedio to Escapes--><g id="link_*start*Amedio_Escapes"><path d="M420.06,162.26 C403.14,177.55 358.87,217.52 328.58,244.89 " fill="none" id="*start*Amedio-to-Escapes" style="stroke:#181818;stroke-width:1.0;"/><polygon fill="#181818" points="324.58,248.49,333.939,245.4226,328.2894,245.1373,328.5747,239.4876,324.58,248.49" style="stroke:#181818;stroke-width:1.0;"/><text fill="#000000" font-family="sans-serif" font-size="13" lengthAdjust="spacing" textLength="28" x="379" y="214.397">15 %</text></g><!--MD5=[cc56d468814f796d7c8a0ac579f4d8c8]
link *start*Amedio to Tired--><g id="link_*start*Amedio_Tired"><path d="M427,165.14 C427,181.67 427,217.18 427,242.84 " fill="none" id="*start*Amedio-to-Tired" style="stroke:#181818;stroke-width:1.0;"/><polygon fill="#181818" points="427,248.16,431,239.16,427,243.16,423,239.16,427,248.16" style="stroke:#181818;stroke-width:1.0;"/><text fill="#000000" font-family="sans-serif" font-size="13" lengthAdjust="spacing" textLength="28" x="428" y="214.397">25 %</text></g><!--MD5=[aaf7b70df8db0f55cd613d987d57416e]
link Escapes to Tired--><g id="link_Escapes_Tired"><path d="M335.31,273.5 C353.79,273.5 375.91,273.5 393.79,273.5 " fill="none" id="Escapes-to-Tired" style="stroke:#181818;stroke-width:1.0;"/><polygon fill="#181818" points="399.2,273.5,390.2,269.5,394.2,273.5,390.2,277.5,399.2,273.5" style="stroke:#181818;stroke-width:1.0;"/><text fill="#000000" font-family="sans-serif" font-size="13" lengthAdjust="spacing" textLength="28" x="353.25" y="266.397">15 %</text></g><!--MD5=[4de8642d5d75b9c51a5a772daf173f64]
link Tired to Escapes--><g id="link_Tired_Escapes"><path d="M399.32,289.51 C393.83,291.99 387.98,294.17 382.25,295.5 C368.48,298.7 353.53,296.63 340.1,292.71 " fill="none" id="Tired-to-Escapes" style="stroke:#181818;stroke-width:1.0;"/><polygon fill="#181818" points="335.22,291.19,342.6294,297.6785,339.9952,292.6724,345.0013,290.0383,335.22,291.19" style="stroke:#181818;stroke-width:1.0;"/><text fill="#000000" font-family="sans-serif" font-size="13" lengthAdjust="spacing" textLength="28" x="353.25" y="291.397">25 %</text></g><!--MD5=[cf7db2fdf0ac7c0e54a72ffa06520485]
link HeavyRain to MarcoSpeed--><g id="link_HeavyRain_MarcoSpeed"><path d="M882.16,298.64 C871.76,306.76 859.69,315.52 848,322.5 C739.49,387.33 598.52,435.38 521.12,459.05 " fill="none" id="HeavyRain-to-MarcoSpeed" style="stroke:#181818;stroke-width:1.0;"/><polygon fill="#181818" points="516.12,460.57,525.8949,461.7751,520.9032,459.1136,523.5647,454.122,516.12,460.57" style="stroke:#181818;stroke-width:1.0;"/><text fill="#000000" font-family="sans-serif" font-size="13" lengthAdjust="spacing" textLength="39" x="776" y="376.897">affects</text></g><!--MD5=[2fa6220026207192d051d059936dbc89]
link LightRain to MarcoSpeed--><g id="link_LightRain_MarcoSpeed"><path d="M760.68,298.6 C750.89,306.54 739.69,315.2 729,322.5 C657.53,371.31 569.7,419.96 515.28,448.89 " fill="none" id="LightRain-to-MarcoSpeed" style="stroke:#181818;stroke-width:1.0;"/><polygon fill="#181818" points="510.77,451.28,520.5932,450.5692,515.1806,448.9248,516.8249,443.5122,510.77,451.28" style="stroke:#181818;stroke-width:1.0;"/><text fill="#000000" font-family="sans-serif" font-size="13" lengthAdjust="spacing" textLength="39" x="670" y="376.897">affects</text></g><!--MD5=[bbe96e029331aa89a2a425cb1d7c8aa3]
link Escapes to MarcoTime--><g id="link_Escapes_MarcoTime"><path d="M299.21,298.75 C301.05,335.82 304.57,406.48 306.55,446.31 " fill="none" id="Escapes-to-MarcoTime" style="stroke:#181818;stroke-width:1.0;"/><polygon fill="#181818" points="306.81,451.48,310.3674,442.296,306.5667,446.4859,302.3769,442.6853,306.81,451.48" style="stroke:#181818;stroke-width:1.0;"/><text fill="#000000" font-family="sans-serif" font-size="13" lengthAdjust="spacing" textLength="39" x="305" y="376.897">affects</text></g><!--MD5=[f1d8a74b5750e722e8f6322ec3ebe048]
link Tired to MarcoSpeed--><g id="link_Tired_MarcoSpeed"><path d="M431.46,298.75 C438.29,335.82 451.29,406.48 458.63,446.31 " fill="none" id="Tired-to-MarcoSpeed" style="stroke:#181818;stroke-width:1.0;"/><polygon fill="#181818" points="459.58,451.48,461.8933,441.9067,458.6793,446.5618,454.0241,443.3478,459.58,451.48" style="stroke:#181818;stroke-width:1.0;"/><text fill="#000000" font-family="sans-serif" font-size="13" lengthAdjust="spacing" textLength="39" x="448" y="376.897">affects</text></g><!--MD5=[ee83390ff63309c002c3863ac87d136d]
link MarcoTime to MarcoAdvance--><g id="link_MarcoTime_MarcoAdvance"><path d="M308,501.69 C308,518.06 308,539.78 308,557.14 " fill="none" id="MarcoTime-to-MarcoAdvance" style="stroke:#181818;stroke-width:1.0;"/><polygon fill="#181818" points="308,562.38,312,553.38,308,557.38,304,553.38,308,562.38" style="stroke:#181818;stroke-width:1.0;"/></g><!--MD5=[29cf77fa006be907aa01b6aad2962d2a]
link MarcoSpeed to MarcoAdvance--><g id="link_MarcoSpeed_MarcoAdvance"><path d="M429.38,501.69 C404.94,518.77 372.17,541.66 346.84,559.36 " fill="none" id="MarcoSpeed-to-MarcoAdvance" style="stroke:#181818;stroke-width:1.0;"/><polygon fill="#181818" points="342.52,562.38,352.1865,560.4935,346.6155,559.5117,347.5973,553.9407,342.52,562.38" style="stroke:#181818;stroke-width:1.0;"/></g><!--MD5=[b1c4f6036f9d54334345c0aa484b79c5]
link *start*Mother to MotherAdvance--><g id="link_*start*Mother_MotherAdvance"><path d="M118,486.79 C118,502.21 118,533.68 118,557.17 " fill="none" id="*start*Mother-to-MotherAdvance" style="stroke:#181818;stroke-width:1.0;"/><polygon fill="#181818" points="118,562.35,122,553.35,118,557.35,114,553.35,118,562.35" style="stroke:#181818;stroke-width:1.0;"/></g><!--MD5=[c1396dceb8a490dbb72b4ec608fe48db]
link MotherAdvance to Distance--><g id="link_MotherAdvance_Distance"><path d="M139.7,612.59 C155.29,629.89 176.36,653.28 192.72,671.44 " fill="none" id="MotherAdvance-to-Distance" style="stroke:#181818;stroke-width:1.0;"/><polygon fill="#181818" points="196.34,675.46,193.2925,666.0945,192.9952,671.7435,187.3461,671.4462,196.34,675.46" style="stroke:#181818;stroke-width:1.0;"/></g><!--MD5=[c136b96e37ef4d663ed1780b9d9947ed]
link MarcoAdvance to Distance--><g id="link_MarcoAdvance_Distance"><path d="M288.47,612.59 C274.44,629.89 255.47,653.28 240.75,671.44 " fill="none" id="MarcoAdvance-to-Distance" style="stroke:#181818;stroke-width:1.0;"/><polygon fill="#181818" points="237.49,675.46,246.2599,670.9779,240.6343,671.5724,240.0398,665.9469,237.49,675.46" style="stroke:#181818;stroke-width:1.0;"/></g><!--MD5=[2164dc379b58150f72bfea36847a4601]
link onJourney to onJourney--><g id="link_onJourney_onJourney"><path d="M1128,154.69 C1139.87,141.5 1163.08,141.61 1163.08,155 C1163.08,168.39 1139.87,168.5 1128,155.31 " fill="none" id="onJourney-to-onJourney" style="stroke:#181818;stroke-width:1.0;"/><polygon fill="#181818" points="1128,155.31,1131.0471,164.6756,1131.3447,159.0266,1136.9937,159.3242,1128,155.31" style="stroke:#181818;stroke-width:1.0;"/><text fill="#000000" font-family="sans-serif" font-size="13" lengthAdjust="spacing" textLength="79" x="1169.08" y="160.397">[Distance &gt; 0]</text></g><!--MD5=[83bdc2cee62feb67f363158a80203865]
link onJourney to Happyness--><g id="link_onJourney_Happyness"><path d="M1145.367,228.7313 C1147.2893,229.9224 1149.1976,231.1049 1151.0886,232.2766 C1158.6523,236.9634 1165.9375,241.4775 1172.72,245.68 " fill="none" id="onJourney-to-Happyness" style="stroke:#181818;stroke-width:1.0;"/><polygon fill="#181818" points="1177.22,248.47,1171.6759,240.3298,1172.9696,245.8367,1167.4627,247.1305,1177.22,248.47" style="stroke:#181818;stroke-width:1.0;"/><text fill="#000000" font-family="sans-serif" font-size="13" lengthAdjust="spacing" textLength="79" x="1129" y="214.397">[Distance = 0]</text></g><!--MD5=[e4c5a5bfb17c0b4c142e71ae486c170c]
link Happyness to *end--><g id="link_Happyness_*end"><path d="M1216,298.72 C1216,316.73 1216,340.71 1216,355.88 " fill="none" id="Happyness-to-*end" style="stroke:#181818;stroke-width:1.0;"/><polygon fill="#181818" points="1216,361.04,1220,352.04,1216,356.04,1212,352.04,1216,361.04" style="stroke:#181818;stroke-width:1.0;"/></g><!--MD5=[6c017f66b5873ae97471ada43cb07348]
@startuml

state onJourney {
state Marco{

[*] - -> MarcoSpeed
[*] - -> MarcoTime

state Weather{

[*] - -> GoodWeather
[*] - -> LightRain : 30 %
[*] - -> HeavyRain : 10 %
}

state Amedio{

[*] - -> Calm
[*] - -> Escapes : 15 %
[*] - -> Tired : 25 %
Escapes -> Tired: 15 %
Tired -> Escapes: 25 %
}

HeavyRain - - -> MarcoSpeed : affects
LightRain - - -> MarcoSpeed : affects

Escapes - - -> MarcoTime : affects
Tired - - -> MarcoSpeed : affects

MarcoTime - -> MarcoAdvance
MarcoSpeed - -> MarcoAdvance

}

state Mother {
    [*] - -> MotherAdvance
}

MotherAdvance - -> Distance
MarcoAdvance - -> Distance

}

onJourney - - -> onJourney : [Distance > 0]

onJourney - -> Happyness : [Distance = 0]

Happyness - -> [*]

@enduml

PlantUML version 1.2022.7(Mon Aug 22 19:01:30 CEST 2022)
(GPL source distribution)
Java Runtime: OpenJDK Runtime Environment
JVM: OpenJDK 64-Bit Server VM
Default Encoding: UTF-8
Language: es
Country: ES
--></g></svg>