<?xml version="1.0" encoding="UTF-8" standalone="no"?><svg xmlns="http://www.w3.org/2000/svg" xmlns:xlink="http://www.w3.org/1999/xlink" contentStyleType="text/css" height="733px" preserveAspectRatio="none" style="width:1040px;height:733px;background:#FFFFFF;" version="1.1" viewBox="0 0 1040 733" width="1040px" zoomAndPan="magnify"><defs/><g><!--MD5=[69a73a17033452497e3e9de00f01ddc4]
cluster onJourney--><g id="cluster_onJourney"><path d="M19.5,7 L902.5,7 A12.5,12.5 0 0 1 915,19.5 L915,36.0679 L7,36.0679 L7,19.5 A12.5,12.5 0 0 1 19.5,7 " fill="#F1F1F1" style="stroke:#F1F1F1;stroke-width:1.0;"/><rect fill="none" height="720.5" rx="12.5" ry="12.5" style="stroke:#181818;stroke-width:0.5;" width="908" x="7" y="7"/><line style="stroke:#181818;stroke-width:0.5;" x1="7" x2="915" y1="36.0679" y2="36.0679"/><text fill="#000000" font-family="sans-serif" font-size="14" lengthAdjust="spacing" textLength="68" x="427" y="25.9659">onJourney</text></g><!--MD5=[5b3ce41e4a5e18bec7fa2ecf4eb794b8]
cluster Weather--><g id="cluster_Weather"><path d="M390.5,61 L753.5,61 A12.5,12.5 0 0 1 766,73.5 L766,90.0679 L378,90.0679 L378,73.5 A12.5,12.5 0 0 1 390.5,61 " fill="#F1F1F1" style="stroke:#F1F1F1;stroke-width:1.0;"/><rect fill="none" height="207.5" rx="12.5" ry="12.5" style="stroke:#181818;stroke-width:0.5;" width="388" x="378" y="61"/><line style="stroke:#181818;stroke-width:0.5;" x1="378" x2="766" y1="90.0679" y2="90.0679"/><text fill="#000000" font-family="sans-serif" font-size="14" lengthAdjust="spacing" textLength="57" x="543.5" y="79.9659">Weather</text></g><!--MD5=[bbe0a58e9aa4bef7dda6f3ab96b5c033]
cluster Amedio--><g id="cluster_Amedio"><path d="M51.5,61 L341.5,61 A12.5,12.5 0 0 1 354,73.5 L354,90.0679 L39,90.0679 L39,73.5 A12.5,12.5 0 0 1 51.5,61 " fill="#F1F1F1" style="stroke:#F1F1F1;stroke-width:1.0;"/><rect fill="none" height="207.5" rx="12.5" ry="12.5" style="stroke:#181818;stroke-width:0.5;" width="315" x="39" y="61"/><line style="stroke:#181818;stroke-width:0.5;" x1="39" x2="354" y1="90.0679" y2="90.0679"/><text fill="#000000" font-family="sans-serif" font-size="14" lengthAdjust="spacing" textLength="51" x="171" y="79.9659">Amedio</text></g><!--MD5=[af2a0423400a3fa74c2b97cdcbd24b65]
cluster Marco--><g id="cluster_Marco"><path d="M250.5,301.5 L492.5,301.5 A12.5,12.5 0 0 1 505,314 L505,330.5679 L238,330.5679 L238,314 A12.5,12.5 0 0 1 250.5,301.5 " fill="#F1F1F1" style="stroke:#F1F1F1;stroke-width:1.0;"/><rect fill="none" height="305" rx="12.5" ry="12.5" style="stroke:#181818;stroke-width:0.5;" width="267" x="238" y="301.5"/><line style="stroke:#181818;stroke-width:0.5;" x1="238" x2="505" y1="330.5679" y2="330.5679"/><text fill="#000000" font-family="sans-serif" font-size="14" lengthAdjust="spacing" textLength="42" x="350.5" y="320.4659">Marco</text></g><!--MD5=[3d10dcbdbc2f691c0eddd401ee824953]
cluster Mother--><g id="cluster_Mother"><path d="M68.5,406.5 L201.5,406.5 A12.5,12.5 0 0 1 214,419 L214,435.5679 L56,435.5679 L56,419 A12.5,12.5 0 0 1 68.5,406.5 " fill="#F1F1F1" style="stroke:#F1F1F1;stroke-width:1.0;"/><rect fill="none" height="200" rx="12.5" ry="12.5" style="stroke:#181818;stroke-width:0.5;" width="158" x="56" y="406.5"/><line style="stroke:#181818;stroke-width:0.5;" x1="56" x2="214" y1="435.5679" y2="435.5679"/><text fill="#000000" font-family="sans-serif" font-size="14" lengthAdjust="spacing" textLength="49" x="110.5" y="425.4659">Mother</text></g><g id="onJourney.Distance"><rect fill="#F1F1F1" height="50" rx="12.5" ry="12.5" style="stroke:#181818;stroke-width:0.5;" width="78" x="186" y="653.5"/><line style="stroke:#181818;stroke-width:0.5;" x1="186" x2="264" y1="682.5679" y2="682.5679"/><text fill="#000000" font-family="sans-serif" font-size="14" lengthAdjust="spacing" textLength="58" x="196" y="673.4659">Distance</text></g><ellipse cx="583" cy="109" fill="#222222" rx="10" ry="10" style="stroke:none;stroke-width:1.0;"/><g id="onJourney.Weather.GoodWeather"><rect fill="#F1F1F1" height="50" rx="12.5" ry="12.5" style="stroke:#181818;stroke-width:0.5;" width="112" x="394" y="202.5"/><line style="stroke:#181818;stroke-width:0.5;" x1="394" x2="506" y1="231.5679" y2="231.5679"/><text fill="#000000" font-family="sans-serif" font-size="14" lengthAdjust="spacing" textLength="92" x="404" y="222.4659">GoodWeather</text></g><g id="onJourney.Weather.LightRain"><rect fill="#F1F1F1" height="50" rx="12.5" ry="12.5" style="stroke:#181818;stroke-width:0.5;" width="84" x="541" y="202.5"/><line style="stroke:#181818;stroke-width:0.5;" x1="541" x2="625" y1="231.5679" y2="231.5679"/><text fill="#000000" font-family="sans-serif" font-size="14" lengthAdjust="spacing" textLength="64" x="551" y="222.4659">LightRain</text></g><g id="onJourney.Weather.HeavyRain"><rect fill="#F1F1F1" height="50" rx="12.5" ry="12.5" style="stroke:#181818;stroke-width:0.5;" width="90" x="660" y="202.5"/><line style="stroke:#181818;stroke-width:0.5;" x1="660" x2="750" y1="231.5679" y2="231.5679"/><text fill="#000000" font-family="sans-serif" font-size="14" lengthAdjust="spacing" textLength="70" x="670" y="222.4659">HeavyRain</text></g><ellipse cx="221" cy="109" fill="#222222" rx="10" ry="10" style="stroke:none;stroke-width:1.0;"/><g id="onJourney.Amedio.Calm"><rect fill="#F1F1F1" height="50" rx="12.5" ry="12.5" style="stroke:#181818;stroke-width:0.5;" width="54" x="284" y="202.5"/><line style="stroke:#181818;stroke-width:0.5;" x1="284" x2="338" y1="231.5679" y2="231.5679"/><text fill="#000000" font-family="sans-serif" font-size="14" lengthAdjust="spacing" textLength="34" x="294" y="222.4659">Calm</text></g><g id="onJourney.Amedio.Escapes"><rect fill="#F1F1F1" height="50" rx="12.5" ry="12.5" style="stroke:#181818;stroke-width:0.5;" width="74" x="55" y="202.5"/><line style="stroke:#181818;stroke-width:0.5;" x1="55" x2="129" y1="231.5679" y2="231.5679"/><text fill="#000000" font-family="sans-serif" font-size="14" lengthAdjust="spacing" textLength="54" x="65" y="222.4659">Escapes</text></g><g id="onJourney.Amedio.Tired"><rect fill="#F1F1F1" height="50" rx="12.5" ry="12.5" style="stroke:#181818;stroke-width:0.5;" width="55" x="193.5" y="202.5"/><line style="stroke:#181818;stroke-width:0.5;" x1="193.5" x2="248.5" y1="231.5679" y2="231.5679"/><text fill="#000000" font-family="sans-serif" font-size="14" lengthAdjust="spacing" textLength="35" x="203.5" y="222.4659">Tired</text></g><ellipse cx="264" cy="349.5" fill="#222222" rx="10" ry="10" style="stroke:none;stroke-width:1.0;"/><g id="onJourney.Marco.MarcoSpeed"><rect fill="#F1F1F1" height="50" rx="12.5" ry="12.5" style="stroke:#181818;stroke-width:0.5;" width="104" x="385" y="429.5"/><line style="stroke:#181818;stroke-width:0.5;" x1="385" x2="489" y1="458.5679" y2="458.5679"/><text fill="#000000" font-family="sans-serif" font-size="14" lengthAdjust="spacing" textLength="84" x="395" y="449.4659">MarcoSpeed</text></g><g id="onJourney.Marco.MarcoTime"><rect fill="#F1F1F1" height="50" rx="12.5" ry="12.5" style="stroke:#181818;stroke-width:0.5;" width="95" x="254.5" y="429.5"/><line style="stroke:#181818;stroke-width:0.5;" x1="254.5" x2="349.5" y1="458.5679" y2="458.5679"/><text fill="#000000" font-family="sans-serif" font-size="14" lengthAdjust="spacing" textLength="75" x="264.5" y="449.4659">MarcoTime</text></g><g id="onJourney.Marco.MarcoAdvance"><rect fill="#F1F1F1" height="50" rx="12.5" ry="12.5" style="stroke:#181818;stroke-width:0.5;" width="119" x="254.5" y="540.5"/><line style="stroke:#181818;stroke-width:0.5;" x1="254.5" x2="373.5" y1="569.5679" y2="569.5679"/><text fill="#000000" font-family="sans-serif" font-size="14" lengthAdjust="spacing" textLength="99" x="264.5" y="560.4659">MarcoAdvance</text></g><ellipse cx="135" cy="454.5" fill="#222222" rx="10" ry="10" style="stroke:none;stroke-width:1.0;"/><g id="onJourney.Mother.MotherAdvance"><rect fill="#F1F1F1" height="50" rx="12.5" ry="12.5" style="stroke:#181818;stroke-width:0.5;" width="126" x="72" y="540.5"/><line style="stroke:#181818;stroke-width:0.5;" x1="72" x2="198" y1="569.5679" y2="569.5679"/><text fill="#000000" font-family="sans-serif" font-size="14" lengthAdjust="spacing" textLength="106" x="82" y="560.4659">MotherAdvance</text></g><g id="Happyness"><rect fill="#F1F1F1" height="50" rx="12.5" ry="12.5" style="stroke:#181818;stroke-width:0.5;" width="94" x="939" y="202.5"/><line style="stroke:#181818;stroke-width:0.5;" x1="939" x2="1033" y1="231.5679" y2="231.5679"/><text fill="#000000" font-family="sans-serif" font-size="14" lengthAdjust="spacing" textLength="74" x="949" y="222.4659">Happyness</text></g><ellipse cx="986" cy="349.5" fill="none" rx="10" ry="10" style="stroke:#222222;stroke-width:1.0;"/><ellipse cx="986.5" cy="350" fill="#222222" rx="6" ry="6" style="stroke:none;stroke-width:1.0;"/><!--MD5=[6a419ce1d50f2a76aaa0462bcdab96f6]
link *start*Weather to GoodWeather--><g id="link_*start*Weather_GoodWeather"><path d="M575.85,116.26 C558.4,131.55 512.76,171.52 481.52,198.89 " fill="none" id="*start*Weather-to-GoodWeather" style="stroke:#181818;stroke-width:1.0;"/><polygon fill="#181818" points="477.41,202.49,486.8172,199.5738,481.1729,199.1975,481.5492,193.5532,477.41,202.49" style="stroke:#181818;stroke-width:1.0;"/></g><!--MD5=[da61acbfbcd31e11fe41e90d825fbfbd]
link *start*Weather to LightRain--><g id="link_*start*Weather_LightRain"><path d="M583,119.14 C583,135.67 583,171.18 583,196.84 " fill="none" id="*start*Weather-to-LightRain" style="stroke:#181818;stroke-width:1.0;"/><polygon fill="#181818" points="583,202.16,587,193.16,583,197.16,579,193.16,583,202.16" style="stroke:#181818;stroke-width:1.0;"/><text fill="#000000" font-family="sans-serif" font-size="13" lengthAdjust="spacing" textLength="28" x="584" y="168.397">30 %</text></g><!--MD5=[cdd66acd2023076cd7879d8955d0bb4d]
link *start*Weather to HeavyRain--><g id="link_*start*Weather_HeavyRain"><path d="M589.83,116.6 C592.11,118.8 594.66,121.26 597,123.5 C623.69,149.1 654.2,178.17 675.96,198.89 " fill="none" id="*start*Weather-to-HeavyRain" style="stroke:#181818;stroke-width:1.0;"/><polygon fill="#181818" points="679.65,202.4,675.8744,193.3036,676.0229,198.9585,670.368,199.107,679.65,202.4" style="stroke:#181818;stroke-width:1.0;"/><text fill="#000000" font-family="sans-serif" font-size="13" lengthAdjust="spacing" textLength="28" x="649" y="168.397">10 %</text></g><!--MD5=[aa60d085fa3b7866fad7402e6cb7272d]
link *start*Amedio to Calm--><g id="link_*start*Amedio_Calm"><path d="M227.41,116.9 C235.14,125.33 248.43,140.12 259,153.5 C270.36,167.89 282.28,184.49 291.83,198.23 " fill="none" id="*start*Amedio-to-Calm" style="stroke:#181818;stroke-width:1.0;"/><polygon fill="#181818" points="294.72,202.39,292.8946,192.7118,291.8777,198.2765,286.313,197.2595,294.72,202.39" style="stroke:#181818;stroke-width:1.0;"/></g><!--MD5=[404e830fe5fb0d45dc76b28ea610d6f4]
link *start*Amedio to Escapes--><g id="link_*start*Amedio_Escapes"><path d="M214.06,116.26 C197.14,131.55 152.87,171.52 122.58,198.89 " fill="none" id="*start*Amedio-to-Escapes" style="stroke:#181818;stroke-width:1.0;"/><polygon fill="#181818" points="118.58,202.49,127.939,199.4226,122.2894,199.1373,122.5747,193.4876,118.58,202.49" style="stroke:#181818;stroke-width:1.0;"/><text fill="#000000" font-family="sans-serif" font-size="13" lengthAdjust="spacing" textLength="28" x="173" y="168.397">15 %</text></g><!--MD5=[cc56d468814f796d7c8a0ac579f4d8c8]
link *start*Amedio to Tired--><g id="link_*start*Amedio_Tired"><path d="M221,119.14 C221,135.67 221,171.18 221,196.84 " fill="none" id="*start*Amedio-to-Tired" style="stroke:#181818;stroke-width:1.0;"/><polygon fill="#181818" points="221,202.16,225,193.16,221,197.16,217,193.16,221,202.16" style="stroke:#181818;stroke-width:1.0;"/><text fill="#000000" font-family="sans-serif" font-size="13" lengthAdjust="spacing" textLength="28" x="222" y="168.397">25 %</text></g><!--MD5=[4de8642d5d75b9c51a5a772daf173f64]
link Tired to Escapes--><g id="link_Tired_Escapes"><path d="M193.2,227.5 C176.13,227.5 153.92,227.5 134.66,227.5 " fill="none" id="Tired-to-Escapes" style="stroke:#181818;stroke-width:1.0;"/><polygon fill="#181818" points="129.31,227.5,138.31,231.5,134.31,227.5,138.31,223.5,129.31,227.5" style="stroke:#181818;stroke-width:1.0;"/><text fill="#000000" font-family="sans-serif" font-size="13" lengthAdjust="spacing" textLength="28" x="147.25" y="220.397">25 %</text></g><!--MD5=[aaf7b70df8db0f55cd613d987d57416e]
link Escapes to Tired--><g id="link_Escapes_Tired"><path d="M129.22,245.19 C143.84,250.04 160.79,253.09 176.25,249.5 C180.37,248.54 184.55,247.15 188.61,245.52 " fill="none" id="Escapes-to-Tired" style="stroke:#181818;stroke-width:1.0;"/><polygon fill="#181818" points="193.32,243.51,183.4724,243.3528,188.7191,245.4675,186.6044,250.7142,193.32,243.51" style="stroke:#181818;stroke-width:1.0;"/><text fill="#000000" font-family="sans-serif" font-size="13" lengthAdjust="spacing" textLength="28" x="147.25" y="245.397">15 %</text></g><!--MD5=[6161b0249fbc472b3bfa299e3a008b17]
link *start*Marco to MarcoSpeed--><g id="link_*start*Marco_MarcoSpeed"><path d="M273.17,353.95 C291.62,361.05 334.22,378.36 367,398.5 C380.25,406.64 393.9,416.88 405.59,426.31 " fill="none" id="*start*Marco-to-MarcoSpeed" style="stroke:#181818;stroke-width:1.0;"/><polygon fill="#181818" points="409.47,429.47,405.0232,420.6822,405.5951,426.31,399.9673,426.882,409.47,429.47" style="stroke:#181818;stroke-width:1.0;"/></g><!--MD5=[691e7cd9ec3f97dc967d1deac575b6e4]
link *start*Marco to MarcoTime--><g id="link_*start*Marco_MarcoTime"><path d="M267.24,359.28 C272.51,373.57 283.18,402.48 291.31,424.53 " fill="none" id="*start*Marco-to-MarcoTime" style="stroke:#181818;stroke-width:1.0;"/><polygon fill="#181818" points="293.11,429.41,293.7479,419.5818,291.3795,424.719,286.2423,422.3506,293.11,429.41" style="stroke:#181818;stroke-width:1.0;"/></g><!--MD5=[cf7db2fdf0ac7c0e54a72ffa06520485]
link HeavyRain to MarcoSpeed--><g id="link_HeavyRain_MarcoSpeed"><path d="M688.2,252.81 C668.06,280.81 632.18,327.1 594,359.5 C562.6,386.14 522.75,409.91 491.05,426.87 " fill="none" id="HeavyRain-to-MarcoSpeed" style="stroke:#181818;stroke-width:1.0;"/><polygon fill="#181818" points="486.43,429.33,496.2549,428.6439,490.8465,426.986,492.5045,421.5775,486.43,429.33" style="stroke:#181818;stroke-width:1.0;"/><text fill="#000000" font-family="sans-serif" font-size="13" lengthAdjust="spacing" textLength="39" x="658" y="354.897">affects</text></g><!--MD5=[2fa6220026207192d051d059936dbc89]
link LightRain to MarcoSpeed--><g id="link_LightRain_MarcoSpeed"><path d="M569.27,252.5 C553.92,279.04 528.05,322.87 504,359.5 C489.28,381.93 471.63,406.61 458.14,425.05 " fill="none" id="LightRain-to-MarcoSpeed" style="stroke:#181818;stroke-width:1.0;"/><polygon fill="#181818" points="455.16,429.12,463.7101,424.2318,458.1187,425.0893,457.2611,419.4979,455.16,429.12" style="stroke:#181818;stroke-width:1.0;"/><text fill="#000000" font-family="sans-serif" font-size="13" lengthAdjust="spacing" textLength="39" x="546" y="354.897">affects</text></g><!--MD5=[bbe96e029331aa89a2a425cb1d7c8aa3]
link Escapes to MarcoTime--><g id="link_Escapes_MarcoTime"><path d="M127.39,252.63 C141.88,261.45 159.17,270.68 176,276.5 C200.41,284.94 273.46,274.53 291,293.5 C323.43,328.57 317.34,388.49 309.78,424.21 " fill="none" id="Escapes-to-MarcoTime" style="stroke:#181818;stroke-width:1.0;"/><polygon fill="#181818" points="308.66,429.3,314.495,421.3657,309.731,424.4161,306.6807,419.6521,308.66,429.3" style="stroke:#181818;stroke-width:1.0;"/><text fill="#000000" font-family="sans-serif" font-size="13" lengthAdjust="spacing" textLength="39" x="317" y="354.897">affects</text></g><!--MD5=[f1d8a74b5750e722e8f6322ec3ebe048]
link Tired to MarcoSpeed--><g id="link_Tired_MarcoSpeed"><path d="M238.26,252.72 C245.79,261.54 255.34,270.76 266,276.5 C305.31,297.66 329.7,266.16 365,293.5 C406.66,325.77 424.89,387.49 432.34,424.12 " fill="none" id="Tired-to-MarcoSpeed" style="stroke:#181818;stroke-width:1.0;"/><polygon fill="#181818" points="433.36,429.34,435.5388,419.7352,432.3904,424.4349,427.6906,421.2865,433.36,429.34" style="stroke:#181818;stroke-width:1.0;"/><text fill="#000000" font-family="sans-serif" font-size="13" lengthAdjust="spacing" textLength="39" x="414" y="354.897">affects</text></g><!--MD5=[ee83390ff63309c002c3863ac87d136d]
link MarcoTime to MarcoAdvance--><g id="link_MarcoTime_MarcoAdvance"><path d="M304.66,479.69 C306.47,496.06 308.86,517.78 310.77,535.14 " fill="none" id="MarcoTime-to-MarcoAdvance" style="stroke:#181818;stroke-width:1.0;"/><polygon fill="#181818" points="311.34,540.38,314.3394,530.999,310.7972,535.4095,306.3867,531.8674,311.34,540.38" style="stroke:#181818;stroke-width:1.0;"/></g><!--MD5=[29cf77fa006be907aa01b6aad2962d2a]
link MarcoSpeed to MarcoAdvance--><g id="link_MarcoSpeed_MarcoAdvance"><path d="M409.7,479.69 C390.59,496.62 365.02,519.28 345.12,536.92 " fill="none" id="MarcoSpeed-to-MarcoAdvance" style="stroke:#181818;stroke-width:1.0;"/><polygon fill="#181818" points="341.22,540.38,350.6098,537.4082,344.9633,537.0653,345.3062,531.4188,341.22,540.38" style="stroke:#181818;stroke-width:1.0;"/></g><!--MD5=[b1c4f6036f9d54334345c0aa484b79c5]
link *start*Mother to MotherAdvance--><g id="link_*start*Mother_MotherAdvance"><path d="M135,464.79 C135,480.21 135,511.68 135,535.17 " fill="none" id="*start*Mother-to-MotherAdvance" style="stroke:#181818;stroke-width:1.0;"/><polygon fill="#181818" points="135,540.35,139,531.35,135,535.35,131,531.35,135,540.35" style="stroke:#181818;stroke-width:1.0;"/></g><!--MD5=[c1396dceb8a490dbb72b4ec608fe48db]
link MotherAdvance to Distance--><g id="link_MotherAdvance_Distance"><path d="M154.53,590.59 C168.56,607.89 187.53,631.28 202.25,649.44 " fill="none" id="MotherAdvance-to-Distance" style="stroke:#181818;stroke-width:1.0;"/><polygon fill="#181818" points="205.51,653.46,202.9602,643.9469,202.3657,649.5724,196.7401,648.9779,205.51,653.46" style="stroke:#181818;stroke-width:1.0;"/></g><!--MD5=[c136b96e37ef4d663ed1780b9d9947ed]
link MarcoAdvance to Distance--><g id="link_MarcoAdvance_Distance"><path d="M294.69,590.59 C280.81,607.89 262.06,631.28 247.5,649.44 " fill="none" id="MarcoAdvance-to-Distance" style="stroke:#181818;stroke-width:1.0;"/><polygon fill="#181818" points="244.27,653.46,253.0218,648.9427,247.3987,649.5598,246.7815,643.9368,244.27,653.46" style="stroke:#181818;stroke-width:1.0;"/></g><!--MD5=[2164dc379b58150f72bfea36847a4601]
link onJourney to onJourney--><g id="link_onJourney_onJourney"><path d="M898,108.69 C909.87,95.5 933.08,95.61 933.08,109 C933.08,122.39 909.87,122.5 898,109.31 " fill="none" id="onJourney-to-onJourney" style="stroke:#181818;stroke-width:1.0;"/><polygon fill="#181818" points="898,109.31,901.0471,118.6756,901.3447,113.0266,906.9937,113.3242,898,109.31" style="stroke:#181818;stroke-width:1.0;"/><text fill="#000000" font-family="sans-serif" font-size="13" lengthAdjust="spacing" textLength="79" x="939.08" y="114.397">[Distance &gt; 0]</text></g><!--MD5=[83bdc2cee62feb67f363158a80203865]
link onJourney to Happyness--><g id="link_onJourney_Happyness"><path d="M915.367,182.7313 C917.2893,183.9224 919.1976,185.1049 921.0886,186.2766 C928.6523,190.9634 935.9375,195.4775 942.72,199.68 " fill="none" id="onJourney-to-Happyness" style="stroke:#181818;stroke-width:1.0;"/><polygon fill="#181818" points="947.22,202.47,941.6759,194.3298,942.9696,199.8367,937.4627,201.1305,947.22,202.47" style="stroke:#181818;stroke-width:1.0;"/><text fill="#000000" font-family="sans-serif" font-size="13" lengthAdjust="spacing" textLength="79" x="899" y="168.397">[Distance = 0]</text></g><!--MD5=[e4c5a5bfb17c0b4c142e71ae486c170c]
link Happyness to *end--><g id="link_Happyness_*end"><path d="M986,252.78 C986,277.2 986,314.02 986,334.13 " fill="none" id="Happyness-to-*end" style="stroke:#181818;stroke-width:1.0;"/><polygon fill="#181818" points="986,339.34,990,330.34,986,334.34,982,330.34,986,339.34" style="stroke:#181818;stroke-width:1.0;"/></g><!--MD5=[480469aadcda11c1fff4e49339d1de46]
@startuml

state onJourney {
state Weather{

[*] - -> GoodWeather
[*] - -> LightRain : 30 %
[*] - -> HeavyRain : 10 %
}

state Amedio{

[*] - -> Calm
[*] - -> Escapes : 15 %
[*] - -> Tired : 25 %
Tired -> Escapes: 25 %
Escapes -> Tired: 15 %
}
state Marco{

[*] - -> MarcoSpeed
[*] - -> MarcoTime


HeavyRain - - -> MarcoSpeed : affects
LightRain - - -> MarcoSpeed : affects

Escapes - - -> MarcoTime : affects
Tired - - -> MarcoSpeed : affects

MarcoTime - -> MarcoAdvance
MarcoSpeed - -> MarcoAdvance

}

state Mother {
    [*] - -> MotherAdvance
}

MotherAdvance - -> Distance
MarcoAdvance - -> Distance

}

onJourney - - -> onJourney : [Distance > 0]

onJourney - -> Happyness : [Distance = 0]

Happyness - -> [*]

@enduml

PlantUML version 1.2022.7(Mon Aug 22 19:01:30 CEST 2022)
(GPL source distribution)
Java Runtime: OpenJDK Runtime Environment
JVM: OpenJDK 64-Bit Server VM
Default Encoding: UTF-8
Language: es
Country: ES
--></g></svg>