<?xml version="1.0" encoding="UTF-8" standalone="no"?><svg xmlns="http://www.w3.org/2000/svg" xmlns:xlink="http://www.w3.org/1999/xlink" contentStyleType="text/css" height="366px" preserveAspectRatio="none" style="width:421px;height:366px;background:#FFFFFF;" version="1.1" viewBox="0 0 421 366" width="421px" zoomAndPan="magnify"><defs/><g><!--MD5=[fbce319ede366ca1af4972d1271ac7ac]
class Marco--><g id="elem_Marco"><rect fill="#F1F1F1" height="29.0679" id="Marco" rx="2.5" ry="2.5" style="stroke:#181818;stroke-width:0.5;" width="48" x="61.5" y="223"/><text fill="#000000" font-family="sans-serif" font-size="14" lengthAdjust="spacing" textLength="42" x="64.5" y="242.9659">Marco</text></g><!--MD5=[f8dbe852789f6b924c8219364c6d35e7]
class Weather--><g id="elem_Weather"><rect fill="#F1F1F1" height="29.0679" id="Weather" rx="2.5" ry="2.5" style="stroke:#181818;stroke-width:0.5;" width="63" x="7" y="331"/><text fill="#000000" font-family="sans-serif" font-size="14" lengthAdjust="spacing" textLength="57" x="10" y="350.9659">Weather</text></g><!--MD5=[16db7195a0095ca5c66dab5413ba4510]
class Amedio--><g id="elem_Amedio"><rect fill="#F1F1F1" height="29.0679" id="Amedio" rx="2.5" ry="2.5" style="stroke:#181818;stroke-width:0.5;" width="57" x="105" y="331"/><text fill="#000000" font-family="sans-serif" font-size="14" lengthAdjust="spacing" textLength="51" x="108" y="350.9659">Amedio</text></g><!--MD5=[cc15daeb8b4e6bacf34831777829d2c1]
class Distance--><g id="elem_Distance"><rect fill="#F1F1F1" height="29.0679" id="Distance" rx="2.5" ry="2.5" style="stroke:#181818;stroke-width:0.5;" width="64" x="202.5" y="223"/><text fill="#000000" font-family="sans-serif" font-size="14" lengthAdjust="spacing" textLength="58" x="205.5" y="242.9659">Distance</text></g><!--MD5=[389352b9f0e385ca8660602f519663e4]
class Mother--><g id="elem_Mother"><rect fill="#F1F1F1" height="29.0679" id="Mother" rx="2.5" ry="2.5" style="stroke:#181818;stroke-width:0.5;" width="55" x="359" y="223"/><text fill="#000000" font-family="sans-serif" font-size="14" lengthAdjust="spacing" textLength="49" x="362" y="242.9659">Mother</text></g><!--MD5=[2e42295458bb0bec21c9622a623eb29e]
class Time--><g id="elem_Time"><rect fill="#F1F1F1" height="29.0679" id="Time" rx="2.5" ry="2.5" style="stroke:#181818;stroke-width:0.5;" width="39" x="140" y="7"/><text fill="#000000" font-family="sans-serif" font-size="14" lengthAdjust="spacing" textLength="33" x="143" y="26.9659">Time</text></g><!--MD5=[3414d3a9b66f2c7b4cdae254e9b09b59]
class Journey--><g id="elem_Journey"><rect fill="#F1F1F1" height="29.0679" id="Journey" rx="2.5" ry="2.5" style="stroke:#181818;stroke-width:0.5;" width="57" x="131" y="115"/><text fill="#000000" font-family="sans-serif" font-size="14" lengthAdjust="spacing" textLength="51" x="134" y="134.9659">Journey</text></g><!--MD5=[bbb46ea5ae1060678bb734f4e5f158ec]
link Marco to Weather--><g id="link_Marco_Weather"><path codeLine="5" d="M63.83,252.31 C54.15,259.8 43.75,269.98 38.5,282 C31.63,297.71 33.24,317.83 35.48,330.94 " fill="none" id="Marco-Weather" style="stroke:#181818;stroke-width:1.0;"/><polygon fill="#000000" points="45.1959,287.1494,39.3633,294.6615,44.8927,296.6551,45.1959,287.1494" style="stroke:#000000;stroke-width:1.0;"/><text fill="#000000" font-family="sans-serif" font-size="13" lengthAdjust="spacing" textLength="37" x="52.5" y="296.897">Afecta</text></g><!--MD5=[c7f1bbff828024712fcb36bb20eacf41]
link Marco to Amedio--><g id="link_Marco_Amedio"><path codeLine="6" d="M91.78,252.36 C101.03,272.78 118.21,310.74 127.38,330.97 " fill="none" id="Marco-Amedio" style="stroke:#181818;stroke-width:1.0;"/><polygon fill="#000000" points="117.4373,287.2983,118.4916,296.7503,123.8459,294.3254,117.4373,287.2983" style="stroke:#000000;stroke-width:1.0;"/><text fill="#000000" font-family="sans-serif" font-size="13" lengthAdjust="spacing" textLength="37" x="128.5" y="296.897">Afecta</text></g><!--MD5=[7864904606b045c51e8773ac2244b69c]
link Marco to Distance--><g id="link_Marco_Distance"><path codeLine="8" d="M109.77,237.5 C135,237.5 174.63,237.5 202.43,237.5 " fill="none" id="Marco-Distance" style="stroke:#181818;stroke-width:1.0;"/><polygon fill="#000000" points="137,225.353,127.9549,222.4141,127.9549,228.2919,137,225.353" style="stroke:#000000;stroke-width:1.0;"/><text fill="#000000" font-family="sans-serif" font-size="13" lengthAdjust="spacing" textLength="43" x="141" y="230.397">Avanza</text></g><!--MD5=[20fd3dc09437ffe8a8425f532d9f6a7d]
link Distance to Mother--><g id="link_Distance_Mother"><path codeLine="10" d="M266.74,237.5 C294.1,237.5 332.94,237.5 358.9,237.5 " fill="none" id="Distance-Mother" style="stroke:#181818;stroke-width:1.0;"/><polygon fill="#000000" points="283.75,225.353,292.7951,228.2919,292.7951,222.4141,283.75,225.353" style="stroke:#000000;stroke-width:1.0;"/><text fill="#000000" font-family="sans-serif" font-size="13" lengthAdjust="spacing" textLength="43" x="297.75" y="230.397">Avanza</text></g><!--MD5=[99deead410f7a8b7ea68094ac1aeb2b1]
link Time to Journey--><g id="link_Time_Journey"><path codeLine="12" d="M159.5,36.36 C159.5,56.78 159.5,94.74 159.5,114.97 " fill="none" id="Time-Journey" style="stroke:#181818;stroke-width:1.0;"/><polygon fill="#000000" points="164.5,80.853,167.4389,71.8079,161.5611,71.8079,164.5,80.853" style="stroke:#000000;stroke-width:1.0;"/><text fill="#000000" font-family="sans-serif" font-size="13" lengthAdjust="spacing" textLength="28" x="173.5" y="80.897">Pasa</text></g><!--MD5=[32a9d5558636a0194f24c75b7bfa282a]
link Journey to Marco--><g id="link_Journey_Marco"><path codeLine="14" d="M149.83,144.36 C135.57,164.78 109.07,202.74 94.94,222.97 " fill="none" id="Journey-Marco" style="stroke:#181818;stroke-width:1.0;"/></g><!--MD5=[f13ac775e096e0e3987e604040ae1f9b]
link Journey to Distance--><g id="link_Journey_Distance"><path codeLine="16" d="M169.3,144.36 C183.76,164.78 210.61,202.74 224.93,222.97 " fill="none" id="Journey-Distance" style="stroke:#181818;stroke-width:1.0;stroke-dasharray:7.0,7.0;"/><polygon fill="#000000" points="206.6117,179.7716,209.4377,188.8526,214.2357,185.4572,206.6117,179.7716" style="stroke:#000000;stroke-width:1.0;"/><text fill="#000000" font-family="sans-serif" font-size="13" lengthAdjust="spacing" textLength="108" x="218.5" y="188.897">while Distancia &gt; 0</text></g><!--MD5=[2dde53d2e6a7253166af87b4137bf622]
@startuml

hide empty members
hide circle

Marco - - Weather: < Afecta
Marco - - Amedio: < Afecta

Marco -r- Distance: > Avanza

Distance -r- Mother: < Avanza

Time - - Journey: > Pasa

Journey - - Marco

Journey .. Distance: < while Distancia > 0

@enduml

PlantUML version 1.2022.7(Mon Aug 22 19:01:30 CEST 2022)
(GPL source distribution)
Java Runtime: OpenJDK Runtime Environment
JVM: OpenJDK 64-Bit Server VM
Default Encoding: UTF-8
Language: es
Country: ES
--></g></svg>