<?xml version="1.0" encoding="UTF-8" standalone="no"?><svg xmlns="http://www.w3.org/2000/svg" xmlns:xlink="http://www.w3.org/1999/xlink" contentStyleType="text/css" height="505px" preserveAspectRatio="none" style="width:759px;height:505px;background:#FFFFFF;" version="1.1" viewBox="0 0 759 505" width="759px" zoomAndPan="magnify"><defs/><g><!--MD5=[5f0899136ed8f523b18ed05779c24112]
class Match--><g id="elem_Match"><rect fill="#F1F1F1" height="48" id="Match" rx="2.5" ry="2.5" style="stroke:#181818;stroke-width:0.5;" width="74" x="272.5" y="7"/><ellipse cx="287.5" cy="23" fill="#ADD1B2" rx="11" ry="11" style="stroke:#181818;stroke-width:1.0;"/><path d="M286.9688,29.9219 Q285.2188,29.9219 284.0781,29.1875 Q282.9531,28.4375 282.3906,27.0938 Q281.8438,25.7344 281.8438,23.9375 Q281.8438,21.9063 282.5,20.4531 Q283.1563,19 284.4375,18.2188 Q285.7188,17.4375 287.5938,17.4375 Q288.4844,17.4375 289.1563,17.625 Q289.8281,17.7969 290.5156,18.1406 L289.7031,20.1563 Q289.0781,19.8438 288.5313,19.7188 Q288,19.5938 287.5156,19.5938 Q286.3438,19.5938 285.6406,20.125 Q284.9375,20.6563 284.6406,21.6094 Q284.3438,22.5625 284.3438,23.8281 Q284.3438,25.8438 285.0625,26.8125 Q285.7813,27.7656 287.375,27.7656 Q287.9688,27.7656 288.5938,27.6094 Q289.2188,27.4531 290.0469,27.0781 L290.0469,29.2969 Q289.3125,29.6094 288.5156,29.7656 Q287.7344,29.9219 286.9688,29.9219 Z " fill="#000000"/><text fill="#000000" font-family="sans-serif" font-size="14" lengthAdjust="spacing" textLength="42" x="301.5" y="28.432">Match</text><line style="stroke:#181818;stroke-width:0.5;" x1="273.5" x2="345.5" y1="39" y2="39"/><line style="stroke:#181818;stroke-width:0.5;" x1="273.5" x2="345.5" y1="47" y2="47"/></g><!--MD5=[0a005aa698e1f18d1a2bb4de0df49e47]
class Encounter--><g id="elem_Encounter"><rect fill="#F1F1F1" height="48" id="Encounter" rx="2.5" ry="2.5" style="stroke:#181818;stroke-width:0.5;" width="101" x="18" y="7"/><ellipse cx="33" cy="23" fill="#ADD1B2" rx="11" ry="11" style="stroke:#181818;stroke-width:1.0;"/><path d="M32.4688,29.9219 Q30.7188,29.9219 29.5781,29.1875 Q28.4531,28.4375 27.8906,27.0938 Q27.3438,25.7344 27.3438,23.9375 Q27.3438,21.9063 28,20.4531 Q28.6563,19 29.9375,18.2188 Q31.2188,17.4375 33.0938,17.4375 Q33.9844,17.4375 34.6563,17.625 Q35.3281,17.7969 36.0156,18.1406 L35.2031,20.1563 Q34.5781,19.8438 34.0313,19.7188 Q33.5,19.5938 33.0156,19.5938 Q31.8438,19.5938 31.1406,20.125 Q30.4375,20.6563 30.1406,21.6094 Q29.8438,22.5625 29.8438,23.8281 Q29.8438,25.8438 30.5625,26.8125 Q31.2813,27.7656 32.875,27.7656 Q33.4688,27.7656 34.0938,27.6094 Q34.7188,27.4531 35.5469,27.0781 L35.5469,29.2969 Q34.8125,29.6094 34.0156,29.7656 Q33.2344,29.9219 32.4688,29.9219 Z " fill="#000000"/><text fill="#000000" font-family="sans-serif" font-size="14" lengthAdjust="spacing" textLength="69" x="47" y="28.432">Encounter</text><line style="stroke:#181818;stroke-width:0.5;" x1="19" x2="118" y1="39" y2="39"/><line style="stroke:#181818;stroke-width:0.5;" x1="19" x2="118" y1="47" y2="47"/></g><!--MD5=[2555a5a46195b40631e16698a2ba5d47]
class Period--><g id="elem_Period"><rect fill="#F1F1F1" height="48" id="Period" rx="2.5" ry="2.5" style="stroke:#181818;stroke-width:0.5;" width="75" x="7" y="134"/><ellipse cx="22" cy="150" fill="#ADD1B2" rx="11" ry="11" style="stroke:#181818;stroke-width:1.0;"/><path d="M21.4688,156.9219 Q19.7188,156.9219 18.5781,156.1875 Q17.4531,155.4375 16.8906,154.0938 Q16.3438,152.7344 16.3438,150.9375 Q16.3438,148.9063 17,147.4531 Q17.6563,146 18.9375,145.2188 Q20.2188,144.4375 22.0938,144.4375 Q22.9844,144.4375 23.6563,144.625 Q24.3281,144.7969 25.0156,145.1406 L24.2031,147.1563 Q23.5781,146.8438 23.0313,146.7188 Q22.5,146.5938 22.0156,146.5938 Q20.8438,146.5938 20.1406,147.125 Q19.4375,147.6563 19.1406,148.6094 Q18.8438,149.5625 18.8438,150.8281 Q18.8438,152.8438 19.5625,153.8125 Q20.2813,154.7656 21.875,154.7656 Q22.4688,154.7656 23.0938,154.6094 Q23.7188,154.4531 24.5469,154.0781 L24.5469,156.2969 Q23.8125,156.6094 23.0156,156.7656 Q22.2344,156.9219 21.4688,156.9219 Z " fill="#000000"/><text fill="#000000" font-family="sans-serif" font-size="14" lengthAdjust="spacing" textLength="43" x="36" y="155.432">Period</text><line style="stroke:#181818;stroke-width:0.5;" x1="8" x2="81" y1="166" y2="166"/><line style="stroke:#181818;stroke-width:0.5;" x1="8" x2="81" y1="174" y2="174"/></g><!--MD5=[e4fcc2874b6199299124ba3224ec1c3d]
class Rules--><g id="elem_Rules"><rect fill="#F1F1F1" height="48" id="Rules" rx="2.5" ry="2.5" style="stroke:#181818;stroke-width:0.5;" width="69" x="288" y="450"/><ellipse cx="303" cy="466" fill="#ADD1B2" rx="11" ry="11" style="stroke:#181818;stroke-width:1.0;"/><path d="M302.4688,472.9219 Q300.7188,472.9219 299.5781,472.1875 Q298.4531,471.4375 297.8906,470.0938 Q297.3438,468.7344 297.3438,466.9375 Q297.3438,464.9063 298,463.4531 Q298.6563,462 299.9375,461.2188 Q301.2188,460.4375 303.0938,460.4375 Q303.9844,460.4375 304.6563,460.625 Q305.3281,460.7969 306.0156,461.1406 L305.2031,463.1563 Q304.5781,462.8438 304.0313,462.7188 Q303.5,462.5938 303.0156,462.5938 Q301.8438,462.5938 301.1406,463.125 Q300.4375,463.6563 300.1406,464.6094 Q299.8438,465.5625 299.8438,466.8281 Q299.8438,468.8438 300.5625,469.8125 Q301.2813,470.7656 302.875,470.7656 Q303.4688,470.7656 304.0938,470.6094 Q304.7188,470.4531 305.5469,470.0781 L305.5469,472.2969 Q304.8125,472.6094 304.0156,472.7656 Q303.2344,472.9219 302.4688,472.9219 Z " fill="#000000"/><text fill="#000000" font-family="sans-serif" font-size="14" lengthAdjust="spacing" textLength="37" x="317" y="471.432">Rules</text><line style="stroke:#181818;stroke-width:0.5;" x1="289" x2="356" y1="482" y2="482"/><line style="stroke:#181818;stroke-width:0.5;" x1="289" x2="356" y1="490" y2="490"/></g><!--MD5=[5845d8c811e614c11d7b5732a9cabb98]
class Lineup--><g id="elem_Lineup"><rect fill="#F1F1F1" height="48" id="Lineup" rx="2.5" ry="2.5" style="stroke:#181818;stroke-width:0.5;" width="78" x="547.5" y="134"/><ellipse cx="562.5" cy="150" fill="#ADD1B2" rx="11" ry="11" style="stroke:#181818;stroke-width:1.0;"/><path d="M561.9688,156.9219 Q560.2188,156.9219 559.0781,156.1875 Q557.9531,155.4375 557.3906,154.0938 Q556.8438,152.7344 556.8438,150.9375 Q556.8438,148.9063 557.5,147.4531 Q558.1563,146 559.4375,145.2188 Q560.7188,144.4375 562.5938,144.4375 Q563.4844,144.4375 564.1563,144.625 Q564.8281,144.7969 565.5156,145.1406 L564.7031,147.1563 Q564.0781,146.8438 563.5313,146.7188 Q563,146.5938 562.5156,146.5938 Q561.3438,146.5938 560.6406,147.125 Q559.9375,147.6563 559.6406,148.6094 Q559.3438,149.5625 559.3438,150.8281 Q559.3438,152.8438 560.0625,153.8125 Q560.7813,154.7656 562.375,154.7656 Q562.9688,154.7656 563.5938,154.6094 Q564.2188,154.4531 565.0469,154.0781 L565.0469,156.2969 Q564.3125,156.6094 563.5156,156.7656 Q562.7344,156.9219 561.9688,156.9219 Z " fill="#000000"/><text fill="#000000" font-family="sans-serif" font-size="14" lengthAdjust="spacing" textLength="46" x="576.5" y="155.432">Lineup</text><line style="stroke:#181818;stroke-width:0.5;" x1="548.5" x2="624.5" y1="166" y2="166"/><line style="stroke:#181818;stroke-width:0.5;" x1="548.5" x2="624.5" y1="174" y2="174"/></g><!--MD5=[bf1eca890ab1a0beddc6a18f04912a2a]
class Referee--><g id="elem_Referee"><rect fill="#F1F1F1" height="48" id="Referee" rx="2.5" ry="2.5" style="stroke:#181818;stroke-width:0.5;" width="84" x="376.5" y="261"/><ellipse cx="391.5" cy="277" fill="#ADD1B2" rx="11" ry="11" style="stroke:#181818;stroke-width:1.0;"/><path d="M390.9688,283.9219 Q389.2188,283.9219 388.0781,283.1875 Q386.9531,282.4375 386.3906,281.0938 Q385.8438,279.7344 385.8438,277.9375 Q385.8438,275.9063 386.5,274.4531 Q387.1563,273 388.4375,272.2188 Q389.7188,271.4375 391.5938,271.4375 Q392.4844,271.4375 393.1563,271.625 Q393.8281,271.7969 394.5156,272.1406 L393.7031,274.1563 Q393.0781,273.8438 392.5313,273.7188 Q392,273.5938 391.5156,273.5938 Q390.3438,273.5938 389.6406,274.125 Q388.9375,274.6563 388.6406,275.6094 Q388.3438,276.5625 388.3438,277.8281 Q388.3438,279.8438 389.0625,280.8125 Q389.7813,281.7656 391.375,281.7656 Q391.9688,281.7656 392.5938,281.6094 Q393.2188,281.4531 394.0469,281.0781 L394.0469,283.2969 Q393.3125,283.6094 392.5156,283.7656 Q391.7344,283.9219 390.9688,283.9219 Z " fill="#000000"/><text fill="#000000" font-family="sans-serif" font-size="14" lengthAdjust="spacing" textLength="52" x="405.5" y="282.432">Referee</text><line style="stroke:#181818;stroke-width:0.5;" x1="377.5" x2="459.5" y1="293" y2="293"/><line style="stroke:#181818;stroke-width:0.5;" x1="377.5" x2="459.5" y1="301" y2="301"/></g><!--MD5=[dfb0845b8492ffe07b1ce50e003034d7]
class Team--><g id="elem_Team"><rect fill="#F1F1F1" height="48" id="Team" rx="2.5" ry="2.5" style="stroke:#181818;stroke-width:0.5;" width="69" x="683" y="261"/><ellipse cx="698" cy="277" fill="#ADD1B2" rx="11" ry="11" style="stroke:#181818;stroke-width:1.0;"/><path d="M697.4688,283.9219 Q695.7188,283.9219 694.5781,283.1875 Q693.4531,282.4375 692.8906,281.0938 Q692.3438,279.7344 692.3438,277.9375 Q692.3438,275.9063 693,274.4531 Q693.6563,273 694.9375,272.2188 Q696.2188,271.4375 698.0938,271.4375 Q698.9844,271.4375 699.6563,271.625 Q700.3281,271.7969 701.0156,272.1406 L700.2031,274.1563 Q699.5781,273.8438 699.0313,273.7188 Q698.5,273.5938 698.0156,273.5938 Q696.8438,273.5938 696.1406,274.125 Q695.4375,274.6563 695.1406,275.6094 Q694.8438,276.5625 694.8438,277.8281 Q694.8438,279.8438 695.5625,280.8125 Q696.2813,281.7656 697.875,281.7656 Q698.4688,281.7656 699.0938,281.6094 Q699.7188,281.4531 700.5469,281.0781 L700.5469,283.2969 Q699.8125,283.6094 699.0156,283.7656 Q698.2344,283.9219 697.4688,283.9219 Z " fill="#000000"/><text fill="#000000" font-family="sans-serif" font-size="14" lengthAdjust="spacing" textLength="37" x="712" y="282.432">Team</text><line style="stroke:#181818;stroke-width:0.5;" x1="684" x2="751" y1="293" y2="293"/><line style="stroke:#181818;stroke-width:0.5;" x1="684" x2="751" y1="301" y2="301"/></g><!--MD5=[2cb47ba637a0d19583e6199456f6ad0b]
class Player--><g id="elem_Player"><rect fill="#F1F1F1" height="48" id="Player" rx="2.5" ry="2.5" style="stroke:#181818;stroke-width:0.5;" width="73" x="496" y="261"/><ellipse cx="511" cy="277" fill="#ADD1B2" rx="11" ry="11" style="stroke:#181818;stroke-width:1.0;"/><path d="M510.4688,283.9219 Q508.7188,283.9219 507.5781,283.1875 Q506.4531,282.4375 505.8906,281.0938 Q505.3438,279.7344 505.3438,277.9375 Q505.3438,275.9063 506,274.4531 Q506.6563,273 507.9375,272.2188 Q509.2188,271.4375 511.0938,271.4375 Q511.9844,271.4375 512.6563,271.625 Q513.3281,271.7969 514.0156,272.1406 L513.2031,274.1563 Q512.5781,273.8438 512.0313,273.7188 Q511.5,273.5938 511.0156,273.5938 Q509.8438,273.5938 509.1406,274.125 Q508.4375,274.6563 508.1406,275.6094 Q507.8438,276.5625 507.8438,277.8281 Q507.8438,279.8438 508.5625,280.8125 Q509.2813,281.7656 510.875,281.7656 Q511.4688,281.7656 512.0938,281.6094 Q512.7188,281.4531 513.5469,281.0781 L513.5469,283.2969 Q512.8125,283.6094 512.0156,283.7656 Q511.2344,283.9219 510.4688,283.9219 Z " fill="#000000"/><text fill="#000000" font-family="sans-serif" font-size="14" lengthAdjust="spacing" textLength="41" x="525" y="282.432">Player</text><line style="stroke:#181818;stroke-width:0.5;" x1="497" x2="568" y1="293" y2="293"/><line style="stroke:#181818;stroke-width:0.5;" x1="497" x2="568" y1="301" y2="301"/></g><!--MD5=[09ce52be0ee7de43c61b6e2d59bf108b]
class Person--><g id="elem_Person"><rect fill="#F1F1F1" height="48" id="Person" rx="2.5" ry="2.5" style="stroke:#181818;stroke-width:0.5;" width="78" x="431.5" y="134"/><ellipse cx="446.5" cy="150" fill="#ADD1B2" rx="11" ry="11" style="stroke:#181818;stroke-width:1.0;"/><path d="M445.9688,156.9219 Q444.2188,156.9219 443.0781,156.1875 Q441.9531,155.4375 441.3906,154.0938 Q440.8438,152.7344 440.8438,150.9375 Q440.8438,148.9063 441.5,147.4531 Q442.1563,146 443.4375,145.2188 Q444.7188,144.4375 446.5938,144.4375 Q447.4844,144.4375 448.1563,144.625 Q448.8281,144.7969 449.5156,145.1406 L448.7031,147.1563 Q448.0781,146.8438 447.5313,146.7188 Q447,146.5938 446.5156,146.5938 Q445.3438,146.5938 444.6406,147.125 Q443.9375,147.6563 443.6406,148.6094 Q443.3438,149.5625 443.3438,150.8281 Q443.3438,152.8438 444.0625,153.8125 Q444.7813,154.7656 446.375,154.7656 Q446.9688,154.7656 447.5938,154.6094 Q448.2188,154.4531 449.0469,154.0781 L449.0469,156.2969 Q448.3125,156.6094 447.5156,156.7656 Q446.7344,156.9219 445.9688,156.9219 Z " fill="#000000"/><text fill="#000000" font-family="sans-serif" font-size="14" lengthAdjust="spacing" textLength="46" x="460.5" y="155.432">Person</text><line style="stroke:#181818;stroke-width:0.5;" x1="432.5" x2="508.5" y1="166" y2="166"/><line style="stroke:#181818;stroke-width:0.5;" x1="432.5" x2="508.5" y1="174" y2="174"/></g><!--MD5=[562947ab6c303e3eaf822fae7a504a51]
reverse link Encounter to Match--><g id="link_Encounter_Match"><path codeLine="2" d="M124.21,31 C169.75,31 232.86,31 272.42,31 " fill="none" id="Encounter-backto-Match" style="stroke:#181818;stroke-width:1.0;"/><polygon fill="#181818" points="119.02,31,128.02,35,124.02,31,128.02,27,119.02,31" style="stroke:#181818;stroke-width:1.0;"/><polygon fill="#000000" points="142.25,18.853,151.2951,21.7919,151.2951,15.9141,142.25,18.853" style="stroke:#000000;stroke-width:1.0;"/><text fill="#000000" font-family="sans-serif" font-size="13" lengthAdjust="spacing" textLength="92" x="156.25" y="23.897">Takes place in a</text></g><!--MD5=[289c139460f89b631e6331d0b0c0eb76]
reverse link Encounter to Period--><g id="link_Encounter_Period"><path codeLine="3" d="M47.74,67.17 C45.16,72.96 42.94,79.02 41.5,85 C37.65,101.06 38.56,119.7 40.36,133.99 " fill="none" id="Encounter-backto-Period" style="stroke:#181818;stroke-width:1.0;"/><polygon fill="#181818" points="53.76,55.08,47.5025,58.6639,48.404,65.8184,54.6615,62.2345,53.76,55.08" style="stroke:#181818;stroke-width:1.0;"/><polygon fill="#000000" points="45.9511,99.8228,49.8652,91.155,44.0229,90.5097,45.9511,99.8228" style="stroke:#000000;stroke-width:1.0;"/><text fill="#000000" font-family="sans-serif" font-size="13" lengthAdjust="spacing" textLength="152" x="55.5" y="99.897">Consists of one or several</text></g><!--MD5=[4d649a89ed2b798639a26c19eeadbf21]
reverse link Match to Rules--><g id="link_Match_Rules"><path codeLine="5" d="M276.23,65.12 C256.18,88.66 234.5,122.17 234.5,157 C234.5,157 234.5,157 234.5,380.5 C234.5,412.97 263.32,438.57 287.97,454.53 " fill="none" id="Match-backto-Rules" style="stroke:#181818;stroke-width:1.0;"/><polygon fill="#181818" points="284.94,55.35,277.9605,57.163,276.9496,64.3029,283.9291,62.4899,284.94,55.35" style="stroke:#181818;stroke-width:1.0;"/><polygon fill="#000000" points="239.6507,290.3507,242.3157,281.2212,236.4405,281.3983,239.6507,290.3507" style="stroke:#000000;stroke-width:1.0;"/><text fill="#000000" font-family="sans-serif" font-size="13" lengthAdjust="spacing" textLength="92" x="248.5" y="290.397">Follows various</text></g><!--MD5=[4c416222b37619edac1f7b67074fc484]
reverse link Match to Lineup--><g id="link_Match_Lineup"><path codeLine="7" d="M351.28,50.85 C404.44,74.84 495.58,115.97 547.42,139.36 " fill="none" id="Match-backto-Lineup" style="stroke:#181818;stroke-width:1.0;"/><polygon fill="#181818" points="346.57,48.73,353.1272,56.0787,351.1272,50.7872,356.4187,48.7871,346.57,48.73" style="stroke:#181818;stroke-width:1.0;"/><polygon fill="#000000" points="464.9425,92.7964,471.9782,99.1956,474.3959,93.838,464.9425,92.7964" style="stroke:#000000;stroke-width:1.0;"/><text fill="#000000" font-family="sans-serif" font-size="13" lengthAdjust="spacing" textLength="75" x="478.5" y="99.897">Competes in</text></g><!--MD5=[2d6ba9835c5d67725fa24ef3b24f5529]
reverse link Match to Referee--><g id="link_Match_Referee"><path codeLine="8" d="M316.78,60.32 C325.11,91 340.03,141.04 358.5,182 C371.26,210.28 389.84,240.69 402.94,260.87 " fill="none" id="Match-backto-Referee" style="stroke:#181818;stroke-width:1.0;"/><polygon fill="#181818" points="315.4,55.19,313.8773,64.9204,316.6999,60.0181,321.6022,62.8406,315.4,55.19" style="stroke:#181818;stroke-width:1.0;"/><polygon fill="#000000" points="361.5263,153.759,362.3964,163.2297,367.797,160.9095,361.5263,153.759" style="stroke:#000000;stroke-width:1.0;"/><text fill="#000000" font-family="sans-serif" font-size="13" lengthAdjust="spacing" textLength="41" x="372.5" y="163.397">Directs</text></g><!--MD5=[21bebe12c522d6a92724a29e4579a6d2]
reverse link Lineup to Team--><g id="link_Lineup_Team"><path codeLine="10" d="M614.51,185.72 C637.93,208.08 671,239.63 693.3,260.91 " fill="none" id="Lineup-backto-Team" style="stroke:#181818;stroke-width:1.0;"/><polygon fill="#181818" points="610.83,182.22,614.5868,191.3242,614.45,185.669,620.1052,185.5322,610.83,182.22" style="stroke:#181818;stroke-width:1.0;"/><polygon fill="#000000" points="660.8828,218.4011,665.3974,226.7718,669.4554,222.5195,660.8828,218.4011" style="stroke:#000000;stroke-width:1.0;"/><text fill="#000000" font-family="sans-serif" font-size="13" lengthAdjust="spacing" textLength="52" x="673.5" y="226.897">Presents</text></g><!--MD5=[3e4705e52f6ea3a36b44a21a43aec0e0]
link Player to Team--><g id="link_Player_Team"><path codeLine="12" d="M569.05,285 C597.85,285 638.25,285 669.63,285 " fill="none" id="Player-to-Team" style="stroke:#181818;stroke-width:1.0;"/><polygon fill="#181818" points="682.9,285,676.9,281,670.9,285,676.9,289,682.9,285" style="stroke:#181818;stroke-width:1.0;"/><polygon fill="#000000" points="596.5,272.853,587.4549,269.9141,587.4549,275.7919,596.5,272.853" style="stroke:#000000;stroke-width:1.0;"/><text fill="#000000" font-family="sans-serif" font-size="13" lengthAdjust="spacing" textLength="64" x="600.5" y="277.897">Belongs to</text></g><!--MD5=[c2c137fc8524fd7e2188f6293955f254]
reverse link Person to Referee--><g id="link_Person_Referee"><path codeLine="14" d="M453.1,200.83 C444.76,220.87 435.1,244.1 428.11,260.91 " fill="none" id="Person-backto-Referee" style="stroke:#181818;stroke-width:1.0;"/><polygon fill="none" points="446.7,198,460.84,182.22,459.62,203.37,446.7,198" style="stroke:#181818;stroke-width:1.0;"/></g><!--MD5=[c665cd897b25d14d50a25ae6adf517ef]
reverse link Person to Player--><g id="link_Person_Player"><path codeLine="15" d="M490.94,200.21 C500.95,220.39 512.62,243.92 521.05,260.91 " fill="none" id="Person-backto-Player" style="stroke:#181818;stroke-width:1.0;"/><polygon fill="none" points="484.63,203.25,482.02,182.22,497.17,197.03,484.63,203.25" style="stroke:#181818;stroke-width:1.0;"/></g><!--MD5=[d7a91b06701dd7b3b9fe46d98286f4b9]
link Referee to Rules--><g id="link_Referee_Rules"><path codeLine="17" d="M394.59,309.35 C379.64,325.19 361.08,347.31 349.5,370 C336.39,395.68 329.23,428.31 325.64,449.89 " fill="none" id="Referee-Rules" style="stroke:#181818;stroke-width:1.0;stroke-dasharray:7.0,7.0;"/><polygon fill="#000000" points="352.2977,384.3419,358.9202,377.5159,353.6432,374.927,352.2977,384.3419" style="stroke:#000000;stroke-width:1.0;"/><text fill="#000000" font-family="sans-serif" font-size="13" lengthAdjust="spacing" textLength="154" x="363.5" y="384.897">Validates compliance with</text></g><!--MD5=[b90a3a57060c0d0ffda0d860d4bf97c6]
link Player to Rules--><g id="link_Player_Rules"><path codeLine="18" d="M536.58,309.25 C539.2,331.84 539.44,366 522.5,389 C483.18,442.36 403.4,462.05 357.37,469.15 " fill="none" id="Player-Rules" style="stroke:#181818;stroke-width:1.0;stroke-dasharray:7.0,7.0;"/><polygon fill="#000000" points="532.7692,383.1818,541.4749,379.3529,537.5617,374.967,532.7692,383.1818" style="stroke:#000000;stroke-width:1.0;"/><text fill="#000000" font-family="sans-serif" font-size="13" lengthAdjust="spacing" textLength="78" x="545.5" y="384.897">Must respect</text></g><!--MD5=[172eba014cb8b698568b2138f64950af]
@startuml

Match -l-> Encounter: Takes place in a >
Encounter *-d- Period: Consists of one or several >

Match *- - Rules: Follows various >

Match <- - Lineup: Competes in <
Match <- - - Referee: Directs <

Team -u-> Lineup: Presents >

Player -r-* Team: Belongs to >

Person <|- - Referee
Person <|- - Player

Referee ... Rules: Validates compliance with >
Player ... Rules: Must respect >

@enduml

PlantUML version 1.2022.7(Mon Aug 22 19:01:30 CEST 2022)
(GPL source distribution)
Java Runtime: OpenJDK Runtime Environment
JVM: OpenJDK 64-Bit Server VM
Default Encoding: UTF-8
Language: es
Country: ES
--></g></svg>